<svg version="1.0" xmlns="http://www.w3.org/2000/svg"
 width="300.000000pt" height="300.000000pt" viewBox="0 0 300.000000 300.000000"
 preserveAspectRatio="xMidYMid meet">
<metadata>
Created by potrace 1.10, written by Peter Selinger 2001-2011
</metadata>
<g transform="translate(0.000000,300.000000) scale(0.100000,-0.100000)"
fill="#000000" stroke="none">
<path d="M1331 2538 c-2 -40 -3 -99 -4 -131 -1 -34 2 -57 8 -57 7 0 11 48 13
130 1 72 -2 130 -7 130 -4 0 -9 -33 -10 -72z"/>
<path d="M1421 2518 c-1 -49 3 -88 7 -88 11 0 12 128 2 154 -6 14 -9 -9 -9
-66z"/>
<path d="M1531 2567 c83 -25 151 -62 187 -100 l24 -25 -39 13 c-65 23 -118 4
-235 -83 -37 -27 -105 -64 -150 -82 -207 -83 -281 -150 -343 -313 -28 -77 -29
-77 -15 -77 6 0 10 8 10 18 0 28 58 143 96 189 50 60 105 96 234 148 67 28
150 72 205 110 51 34 106 66 124 70 34 7 93 -8 111 -30 10 -12 6 -13 -22 -9
-30 5 -37 1 -80 -49 -56 -65 -111 -94 -260 -136 -115 -32 -166 -56 -214 -98
-43 -38 -127 -144 -119 -151 3 -3 13 5 22 19 34 49 119 132 158 154 22 13 89
35 150 50 60 15 129 36 154 47 24 10 46 17 48 15 6 -7 -39 -32 -92 -51 -145
-53 -275 -137 -423 -272 -93 -86 -130 -134 -142 -191 -10 -41 1 -109 20 -127
10 -8 10 -6 1 11 -16 31 -14 110 5 148 20 43 169 186 254 245 82 57 170 111
170 105 0 -20 -67 -104 -126 -156 -129 -116 -213 -222 -267 -336 -24 -53 -32
-84 -35 -148 -5 -94 12 -138 75 -200 50 -48 223 -130 223 -106 0 4 -19 13 -42
20 -91 27 -186 98 -220 165 -15 30 -21 60 -21 109 0 92 19 109 25 23 6 -65 40
-156 60 -156 7 0 7 4 1 13 -26 32 -60 167 -43 167 6 0 10 -9 10 -20 0 -36 37
-96 88 -141 30 -28 106 -73 196 -117 108 -54 161 -87 206 -129 68 -62 83 -59
18 4 -52 50 -122 94 -251 158 -117 59 -186 117 -221 187 -39 78 -36 136 14
236 22 44 48 86 57 93 19 17 19 15 -31 -81 -32 -61 -40 -88 -43 -145 -7 -114
11 -133 264 -277 183 -104 255 -156 297 -215 36 -51 48 -49 16 2 -35 56 -133
131 -303 233 -85 50 -176 111 -203 135 -48 44 -49 45 -47 104 2 102 87 257
222 405 36 40 80 96 96 123 23 39 30 45 32 30 2 -11 11 -45 19 -76 13 -44 14
-61 5 -78 -7 -11 -16 -21 -21 -21 -6 0 -10 -5 -10 -10 0 -18 40 9 50 34 5 14
3 48 -6 91 -13 60 -12 71 0 91 9 12 29 25 45 29 42 9 127 88 163 152 16 29 33
55 38 58 19 12 69 -18 82 -48 17 -42 18 -241 0 -259 -9 -9 -12 -6 -12 15 0 26
-24 48 -52 46 -7 0 -3 -5 10 -11 30 -15 30 -48 -1 -48 -12 0 -33 7 -45 16 -31
21 -29 0 4 -43 15 -20 34 -33 47 -33 20 1 20 2 -5 16 -36 19 -35 23 6 21 27
-2 36 -7 40 -24 3 -11 22 -37 41 -57 19 -20 35 -39 35 -41 0 -3 -16 -5 -36 -5
-40 0 -74 -15 -74 -32 0 -9 3 -9 12 0 7 7 34 12 60 12 65 0 70 18 24 74 -36
44 -44 73 -27 92 15 14 31 121 31 198 0 154 -99 266 -279 320 -30 9 -66 16
-80 15 -14 0 8 -10 50 -22z"/>
<path d="M1284 2435 c0 -66 1 -92 3 -57 2 34 2 88 0 120 -2 31 -3 3 -3 -63z"/>
<path d="M1930 1885 c0 -274 2 -496 5 -493 8 7 8 978 1 986 -3 3 -6 -219 -6
-493z"/>
<path d="M1093 2285 c0 -38 2 -53 4 -32 2 20 2 52 0 70 -2 17 -4 1 -4 -38z"/>
<path d="M1985 1860 c0 -261 1 -368 2 -238 2 131 2 345 0 475 -1 131 -2 24 -2
-237z"/>
<path d="M1052 2250 c0 -71 1 -72 8 -28 5 26 5 60 0 75 -6 21 -8 8 -8 -47z"/>
<path d="M2021 1843 c-1 -318 2 -453 10 -453 12 0 10 855 -2 886 -4 11 -8
-185 -8 -433z"/>
<path d="M1001 2193 c0 -53 3 -80 8 -68 12 31 13 142 1 150 -7 4 -10 -23 -9
-82z"/>
<path d="M2068 2183 c-9 -148 -8 -792 2 -798 7 -4 10 130 10 424 0 406 -3 507
-12 374z"/>
<path d="M959 2223 c-6 -92 -5 -154 2 -159 5 -3 9 32 9 80 0 47 -2 86 -5 86
-3 0 -5 -3 -6 -7z"/>
<path d="M1675 2153 c-16 -9 -41 -24 -54 -34 -13 -11 -37 -19 -52 -19 -16 0
-29 -5 -29 -11 0 -21 73 -3 125 30 56 35 80 39 94 14 9 -15 10 -15 11 -2 0 39
-44 49 -95 22z"/>
<path d="M2110 1983 c0 -115 3 -163 10 -153 12 18 11 320 -1 320 -5 0 -9 -75
-9 -167z"/>
<path d="M2159 2060 c-6 -144 -4 -219 8 -256 10 -34 12 -18 11 121 0 164 -14
260 -19 135z"/>
<path d="M2208 2063 c-5 -129 -4 -300 2 -322 5 -15 9 57 9 167 1 105 -1 192
-4 192 -3 0 -6 -17 -7 -37z"/>
<path d="M2251 1883 c-1 -98 3 -164 9 -168 12 -8 12 281 0 310 -5 12 -9 -42
-9 -142z"/>
<path d="M768 1665 c-1 -198 -1 -441 2 -540 l5 -180 8 184 c9 245 8 851 -3
876 -5 12 -10 -131 -12 -340z"/>
<path d="M2299 1915 c-2 -38 -2 -103 0 -144 5 -113 21 -64 20 64 -1 131 -15
186 -20 80z"/>
<path d="M721 1488 c0 -260 4 -464 9 -453 12 31 13 912 0 920 -7 4 -10 -141
-9 -467z"/>
<path d="M810 1423 c0 -349 3 -533 10 -533 6 0 10 27 10 60 0 77 15 78 23 1 4
-32 11 -70 16 -82 5 -13 13 -41 16 -63 3 -21 8 -36 10 -34 4 4 -14 131 -44
302 -19 105 -21 161 -22 486 0 201 -5 373 -10 381 -5 8 -9 -197 -9 -518z"/>
<path d="M1350 1768 c0 -268 31 -325 192 -359 138 -30 206 -89 228 -197 17
-81 32 -110 25 -48 -17 157 -74 224 -232 270 -126 36 -158 64 -169 148 -6 41
-3 48 27 82 36 42 36 42 139 3 96 -36 116 -39 134 -22 10 10 13 26 9 50 -4 27
-2 35 9 35 21 0 51 37 45 54 -3 8 1 17 9 20 8 3 14 17 13 33 l-1 28 -7 -25
c-6 -21 -13 -25 -44 -24 -42 1 -47 -8 -15 -30 24 -17 17 -31 -17 -38 -17 -3
-20 -11 -18 -46 1 -23 0 -42 -2 -42 -2 0 -41 14 -87 30 -113 41 -169 84 -202
154 -15 31 -29 56 -31 56 -3 0 -5 -60 -5 -132z m69 -27 c8 -14 7 -22 -5 -32
-20 -16 -35 0 -28 29 8 27 20 28 33 3z"/>
<path d="M1280 1625 c0 -148 2 -266 5 -264 7 7 8 519 1 526 -3 4 -6 -114 -6
-262z"/>
<path d="M676 1864 c-9 -24 -6 -752 4 -729 8 20 14 745 6 745 -2 0 -7 -7 -10
-16z"/>
<path d="M2345 1849 c-7 -20 2 -130 11 -138 2 -2 4 32 4 77 0 84 -4 98 -15 61z"/>
<path d="M633 1743 c-13 -128 -10 -490 5 -504 10 -10 12 46 12 284 0 163 -2
297 -4 297 -2 0 -8 -35 -13 -77z"/>
<path d="M861 1415 c1 -165 5 -286 9 -270 11 46 11 538 0 555 -6 10 -9 -90 -9
-285z"/>
<path d="M1140 1530 c0 -40 3 -70 6 -67 8 8 8 126 0 134 -3 4 -6 -27 -6 -67z"/>
<path d="M2110 1501 c0 -56 4 -103 10 -106 6 -4 10 30 10 94 0 56 -4 103 -10
106 -6 4 -10 -30 -10 -94z"/>
<path d="M2172 1582 c-1 -7 -6 -10 -12 -7 -13 8 -13 -164 0 -185 16 -25 21 8
17 111 -1 52 -4 88 -5 81z"/>
<path d="M2208 1578 c-4 -9 -6 -61 -5 -115 1 -86 -1 -98 -17 -101 -17 -4 -17
-4 1 -17 17 -12 17 -15 -3 -62 -11 -26 -25 -47 -31 -46 -11 2 -29 -85 -19 -94
7 -8 40 71 66 155 17 55 20 90 18 182 -2 63 -6 107 -10 98z"/>
<path d="M2301 1298 c1 -181 5 -272 9 -238 12 84 12 518 0 525 -7 4 -10 -94
-9 -287z"/>
<path d="M2347 1583 c-4 -3 -7 -119 -6 -257 0 -184 3 -243 11 -221 9 27 13
473 5 482 -2 1 -7 0 -10 -4z"/>
<path d="M1610 1525 c0 -32 3 -55 7 -52 7 8 5 98 -2 105 -3 3 -5 -21 -5 -53z"/>
<path d="M1750 1475 c0 -60 2 -106 5 -103 8 8 9 197 2 205 -4 3 -7 -42 -7
-102z"/>
<path d="M2251 1258 c1 -196 5 -303 9 -273 12 76 12 595 0 595 -6 0 -10 -113
-9 -322z"/>
<path d="M2398 1567 c-5 -10 -8 -96 -7 -190 1 -129 3 -162 10 -133 11 47 8
350 -3 323z"/>
<path d="M1703 1493 c0 -47 3 -69 8 -58 11 28 11 123 0 129 -5 3 -9 -29 -8
-71z"/>
<path d="M1322 1418 c3 -83 21 -99 26 -24 4 57 -4 96 -19 96 -6 0 -9 -28 -7
-72z"/>
<path d="M1370 1370 c0 -29 3 -50 7 -46 7 7 5 87 -3 95 -2 2 -4 -20 -4 -49z"/>
<path d="M1423 1345 c0 -38 2 -53 4 -32 2 20 2 52 0 70 -2 17 -4 1 -4 -38z"/>
<path d="M2446 1303 c-10 -54 -20 -105 -22 -113 -2 -8 4 3 14 25 16 34 40 185
30 185 -2 0 -12 -44 -22 -97z"/>
<path d="M576 1320 c4 -41 10 -80 15 -86 4 -5 15 -35 22 -65 8 -30 29 -82 46
-116 36 -70 120 -188 128 -179 3 3 -8 22 -24 43 -74 93 -143 248 -172 384
l-21 94 6 -75z"/>
<path d="M905 1349 c-3 -13 -4 -73 -1 -134 2 -60 5 -141 5 -179 1 -38 4 -66 8
-63 10 11 14 370 4 386 -8 12 -11 10 -16 -10z"/>
<path d="M1470 1302 c0 -34 4 -62 9 -62 9 0 6 108 -3 118 -4 3 -6 -22 -6 -56z"/>
<path d="M2033 1353 c20 -2 54 -2 75 0 20 2 3 4 -38 4 -41 0 -58 -2 -37 -4z"/>
<path d="M1553 1285 c0 -38 2 -53 4 -32 2 20 2 52 0 70 -2 17 -4 1 -4 -38z"/>
<path d="M1607 1333 c-8 -17 -6 -89 3 -103 7 -11 10 3 10 48 0 58 -3 72 -13
55z"/>
<path d="M1650 1188 c0 -67 2 -119 4 -117 8 8 11 239 4 239 -5 0 -8 -55 -8
-122z"/>
<path d="M950 1098 c0 -126 4 -198 10 -198 13 0 13 360 0 380 -6 10 -10 -51
-10 -182z"/>
<path d="M1705 945 c0 -192 1 -270 2 -172 2 98 2 256 0 350 -1 95 -3 15 -2
-178z"/>
<path d="M1920 1279 c0 -3 32 -6 70 -6 39 0 68 2 65 6 -9 8 -135 8 -135 0z"/>
<path d="M1000 990 c0 -145 2 -261 5 -259 7 7 8 509 1 516 -3 4 -6 -112 -6
-257z"/>
<path d="M1933 1175 c0 -44 2 -61 4 -37 2 23 2 59 0 80 -2 20 -4 1 -4 -43z"/>
<path d="M2020 1193 c0 -32 5 -65 10 -73 7 -11 10 5 10 52 0 37 -4 70 -10 73
-6 4 -10 -16 -10 -52z"/>
<path d="M2067 1243 c-11 -10 -8 -166 3 -183 7 -10 10 18 10 88 0 102 -1 108
-13 95z"/>
<path d="M1983 1165 c0 -44 2 -61 4 -37 2 23 2 59 0 80 -2 20 -4 1 -4 -43z"/>
<path d="M2204 1226 c-8 -20 2 -315 10 -324 8 -7 9 26 8 192 -2 138 -5 165
-18 132z"/>
<path d="M1050 940 c0 -150 2 -271 5 -268 7 7 7 529 0 536 -3 3 -5 -118 -5
-268z"/>
<path d="M1285 830 c0 -212 1 -298 2 -193 2 106 2 280 0 385 -1 106 -2 20 -2
-192z"/>
<path d="M1094 1040 c0 -85 2 -120 3 -77 2 42 2 112 0 155 -1 42 -3 7 -3 -78z"/>
<path d="M1322 1055 c0 -77 3 -165 8 -195 5 -35 6 0 4 95 -3 101 -1 145 6 135
7 -12 10 -8 10 16 0 16 -4 34 -9 40 -5 5 -11 18 -14 29 -3 11 -5 -43 -5 -120z"/>
<path d="M1140 873 c0 -163 3 -294 6 -290 4 3 9 137 11 297 4 210 2 290 -6
290 -8 0 -11 -84 -11 -297z"/>
<path d="M2385 1104 c-50 -118 -121 -212 -289 -384 -88 -91 -130 -136 -93
-100 122 116 251 248 272 276 11 15 25 32 30 38 23 26 52 73 65 106 8 19 17
37 20 40 7 6 30 83 26 87 -1 2 -16 -27 -31 -63z"/>
<path d="M1224 1010 c0 -80 2 -112 3 -72 2 39 2 105 0 145 -1 39 -3 7 -3 -73z"/>
<path d="M2161 999 c1 -85 4 -143 8 -129 9 32 7 267 -2 276 -4 4 -7 -62 -6
-147z"/>
<path d="M1374 905 c0 -132 2 -185 3 -117 2 68 2 176 0 240 -1 64 -3 9 -3
-123z"/>
<path d="M2111 1041 c-1 -57 1 -102 4 -99 9 9 12 140 4 173 -4 18 -7 -11 -8
-74z"/>
<path d="M1424 985 c0 -77 2 -107 3 -67 2 40 2 103 0 140 -2 37 -3 4 -3 -73z"/>
<path d="M1471 984 c0 -78 3 -104 10 -91 10 18 6 184 -5 194 -3 4 -6 -43 -5
-103z"/>
<path d="M1983 1000 c0 -47 2 -66 4 -42 2 23 2 61 0 85 -2 23 -4 4 -4 -43z"/>
<path d="M1553 980 c0 -36 2 -50 4 -32 2 17 2 47 0 65 -2 17 -4 3 -4 -33z"/>
<path d="M2067 933 c6 -143 11 -153 12 -23 0 58 -3 111 -8 118 -4 7 -6 -36 -4
-95z"/>
<path d="M1653 930 c0 -41 2 -58 4 -37 2 20 2 54 0 75 -2 20 -4 3 -4 -38z"/>
<path d="M952 851 c1 -22 5 -38 10 -35 10 7 7 74 -4 74 -5 0 -8 -18 -6 -39z"/>
<path d="M2024 781 c0 -38 4 -68 8 -65 7 5 3 122 -5 130 -2 3 -4 -27 -3 -65z"/>
<path d="M1223 750 c0 -36 2 -50 4 -32 2 17 2 47 0 65 -2 17 -4 3 -4 -33z"/>
<path d="M900 755 c0 -12 169 -179 175 -173 2 2 -36 44 -85 93 -50 49 -90 85
-90 80z"/>
<path d="M1479 534 c6 -11 17 -27 26 -34 13 -11 19 -10 35 5 11 10 20 25 19
34 0 10 -3 8 -9 -6 -5 -13 -18 -23 -28 -23 -11 0 -27 10 -36 23 -15 19 -15 20
-7 1z"/>
</g>
</svg>
